/* XPM */
static char * default_xpm[] = {
/* width height ncolors cpp [x_hot y_hot] */
"48 48 11 1 0 0",
/* colors */
" 	s iconGray6	m black	c #646464646464",
".	s none	m none	c none",
"X	s iconGray2	m white	c #c8c8c8c8c8c8",
"o	s iconGray5	m black	c #7d7d7d7d7d7d",
"O	s iconGray7	m black	c #4b4b4b4b4b4b",
"+	s iconGray3	m white	c #afafafafafaf",
"@	s iconGray4	m white	c #969696969696",
"#	s iconColor2	m white	c white",
"$	s iconGray8	m black	c #323232323232",
"%	s iconGray1	m white	c #e1e1e1e1e1e1",
"&	s iconColor1	m black	c black",
/* pixels */
" ......X................ooo.....................",
"O...... ...................oo...................",
" .....+X.....................oo.................",
"O.....X .................X.....oo...............",
" ooo..+X................+........o..............",
"O...oooooo.............+X.........o.............",
" ....X+X..ooo..........XX..........o............",
"O....@X .....ooo......X+............o...........",
" ....X+X..... ..oo...X+X.............o....X.....",
"O....@X .... O....oo.+X...............o.#X......",
" O..@X X....O ......ooX................#$#......",
"O ..X@X ...O O.....+XXoo..............X%#.......",
" O..@X X..O O ....+XX ..oo...........X%X.o......",
"O .@X@X .O O O...+XX .....o#.......+X%X ..o.....",
" O.X@X X. O O ...X+XX.....#$#.....+X%X ....o....",
"O X@X X  O O O..X+XX .....&#o....+X%X .....o....",
" O@X@X XO & & .X+XX .....& ..o..+X%X .......o...",
"O X@X X$ O O OX+XX X... & ....o+X%X ........o...",
" O@X@X X& & OX+X+ X... &  ....+o%XO..........o..",
"O X@X X$ O O oX+XX .& & &....+X% +...........o..",
" O@X X XO O oX+XX %& & & ...+X%X+o............o.",
"O@X@X X& O  X+XX X& & & ...+X%X X.o...........o.",
" X@X X O& &X+XX X&X$ & $..+X%X X...o...........o",
"O@X@X X  &X+X+ X X& $ $..+X%X X.....o..........o",
"+X@X X X&X+X+XX X& & $..+X%X X......o..........o",
"%@X@X X&X+X+XX X& $ $ .+X%X X........o..........",
"+X@X X X+X+XX X&X& $ O+X%X X......  Oo..........",
"O$O$OoXoX+XX X X& $ O+X%X X....O O O..o.........",
"@o@o@O$OoX+ X X& $ O+X%X X..O O O O...o.........",
"+X@Xo@ooO$XX X& O O+X%X XO O O O O.....o........",
"XX+X+X+ooo$$X OO O+X%X XO O O O O......o..... X.",
"%@XoXoXoX@ooOO #O+X%X XO O O O O........o+X+ X..",
"XX+X+X+X@XoXoo#$#X%X XO O O O O.......+XoX X....",
"%X%X%X%oX@+X+@$#XXX XO O O O O...+X+X+X Xo......",
"X+X+X+X+XoXoXoo$OX XO O O O OX+X+X+X+X X.o......",
"X%X%X%X%X%X%+XX@OOXO O OX+X+X+X+X+X X ...o......",
"+X+X+X+X+X+XoXo+@oO$+X+X+X+X+X+X X X......o.....",
"X+X%X%X%X%X%XoXoXoO+X+X+X+X+X X X ........o.....",
"+%+X+X+X+X+X+X+X+X$X+X+X+X X X X..........o.....",
"X+%+X%X%X%X%%%XoXooOX+X+X X X ............#.....",
"+%+%+%+%+X+X+X++X+@O+X X X X XO O O O O  #$#....",
"X+%+%+%+%X%X%X%XoXo@O X X XOXO O O O O O..#o....",
"+%+%+%+%X+X+X+X+X+XoOX X XOXOOO O O O .....o....",
"X+%+%+%+%X%X%X%XoXo@OOX X XO O O O O.......o....",
"+%+%+%+%+%X+X++X+X+ooO O OO O O O .........o....",
"X+%+%+%+%+%+%+%@XoX@oO+X+X+ + + +..........o....",
"+%+%+%+%+%+%+%+X+X@X@OX+X+X+X+X+X+X+X+X+X+XoX...",
"X+X+X+X+X+X+X+X+%+%+%O+X+X+X+X+X+X+X+X+X+X+X+X+X"};
