/* XPM */
static char * solstice_xpm[] = {
/* width height ncolors cpp [x_hot y_hot] */
"48 48 15 1 0 0",
/* colors */
" 	s iconGray6	m black	c #646464646464",
".	s none	m none	c none",
"X	s iconColor5	m black	c blue",
"o	s iconColor3	m black	c red",
"O	s iconGray3	m white	c #afafafafafaf",
"+	s iconColor8	m black	c magenta",
"@	s iconColor1	m black	c black",
"#	s iconColor7	m white	c cyan",
"$	s iconColor2	m white	c white",
"%	s iconGray8	m black	c #323232323232",
"&	s iconGray5	m black	c #7d7d7d7d7d7d",
"*	s iconGray4	m white	c #969696969696",
"=	s iconGray2	m white	c #c8c8c8c8c8c8",
"-	s iconColor4	m white	c green",
";	s iconColor6	m white	c yellow",
/* pixels */
" ......X................ooo.....................",
"X...... ...................oo...................",
" .....OX.....................oo.................",
"X.....X .................X.....oo...............",
"oooo..OX................O........o..............",
"X...oooooo.............OX.........o.............",
" ....XOX..ooo..........XX..........o............",
"X....OX .....ooo......XO............o......+....",
" ....XOX.....X..oo...XOX.............o....+.....",
"X....OX ....X@....oo.OX...............o.X+......",
" X..OX X....@X......ooX................o+@......",
"X ..XOX ...@X@.....OXXoo..............X+o.......",
" X..OX X..@X@X....OXX ..oo...........X+X.o......",
"X .OXOX .@X@X@...OXX .....o#.......OX+X@..o.....",
" X.XOX X.X@X@X...XOXX.....#$#.....OX+X@....o....",
"X XOX X X@X@X@..XOXX .....@#o....OX+X@.....o....",
" XOXOX X%X@X@X.XOXX .....@X..o..OX+X@.......o...",
"X XOX X%X@X@X@XOXX X...X@X....oOX+X@........o...",
" XOXOX X@X@X@XOXO X...X@XX....Oo+X@..........o..",
"X XOX X%X@X@X&XOXX .@X@X@....OX+o@...........o..",
" XOX X X@X@X&XOXX .@X@X@X...OX+X o............o.",
"XOXOX X@X@X XOXX X@X@X@X...OX+X X.o...........o.",
" XOX X X@X@XOXX X@X%X@X%..OX+X@X...o...........o",
"XOXOX X@X@XOXO X X@X%X%..OX+X X.....o..........o",
"OXOX X X@XOXOXX X@X@X%..OX+X X......o..........o",
"XOXOX X@XOXOXX X@X%X%X.OX+X@X........o..........",
"OXOX X XOXOXX X@X@X%X%OX+X@X......XX@o..........",
"     &X&XOXX X X@X%X%OX+X@X....&X%X@..o.........",
"X&X&X   &XO X X@X%XXOX+X@X..%X%X%X@...o.........",
"&X*X&X&X  XX X@X XXOX+X@X&X%X%X%X@.....o........",
"X*X*X*X&X&  X X XXOX+X@X&X%X%X%X@......o..... X ",
"OXOX*X*X&X&X@  #XOX+X@X&X%X%X%X@........oOXO X..",
"XOXOX*X*X&X&X&#$#X+X@X@X%X%X%X@.......OXoX X....",
"OX=XOX*X*X&X&X+#X+X@X@X%X@X@X@...**OXOX Xo......",
"X=X=XOX*X*X&X+X- X@X@X%X%X@X@XOXOXOXOX X.o......",
"=X=X=XOX*X&X+X&X&@X@X%X%XOXOXOXOXOX X ...o......",
"X=X=X=XOX*X+X-X-X @%OXOXOXOXOXOX X X......o.....",
"=X=X=X=X*X+X&X&X&X OXOXOXOXOX X X ........o.....",
"X=X=X=X=X+X-X-X-X- XOXOXOX X X X..........o.....",
"=X=X=X=X+X*X*X&X&X& XOXOX X X ............#.....",
"X=X=X=X+X-X-X-X-X-X OX X X XXX%X%X%X%X%++#$#....",
"=X=X=X+X;X;X*X&X&X X  X X X%X%X%X++++++%..#o....",
"X=X=X+*;X-X-X-X-X-X- X X X%++++++X%X%X.....o....",
"=X=X+*;*;X;X;X*X&X X ++++++%X%X%X%X%.......o....",
"X=X+*;*;*;X-X-X++++++XX&@X@X@X@X@X.........o....",
"=X+*;*;*;++++++X*X X XOXOXOXOXOXO..........o....",
"X+*++++++;*;X-X-X-X- OXOXOXOXOXOXOXOXOXOXO&&&...",
"+++*;*;*;*;*;X;X-X X XOXOXOXOXOXOXOXOXOXOXOXOXO."};
