/* XPM */
static char * admintool_m_pm[] = {
/* width height ncolors cpp [x_hot y_hot] */
"48 48 13 1 0 0",
/* colors */
" 	s none	m none	c none",
".	s iconColor1	m black	c black",
"X	s iconColor2	m white	c white",
"o	s iconGray6	m black	c #636363636363",
"O	s iconGray5	m black	c #737373737373",
"+	c #E1E1E1E1E1E1",
"@	c #C8C8C8C8C8C8",
"#	s iconColor3	m black	c red",
"$	s iconGray8	m black	c #212121212121",
"%	s iconColor6	m white	c yellow",
"&	c #FFFFAAAAAAAA",
"*	c #B6B655550000",
"=	s iconGray7	m black	c #424242424242",
/* pixels */
"                                                ",
"                                                ",
"                                                ",
"                                                ",
"                                                ",
"                                                ",
"                                  ..            ",
"                        .....    .XX.           ",
"                        .oXX.O  .o+X.           ",
"                        .@+X.O  .@@@X..         ",
"                        .o@X.O   ..o@XX.        ",
"              ......    .@@X.O     .o@+X.       ",
"              .oXXXX..  ..+..O     .@@@@X.      ",
"            ..X.o@@+X.   .+.O      ..@@@+X.     ",
"            .X.X..@@X.   .+.O     .#X.@@@X.     ",
"            .@X.  .@X.   .+.O    .#X#....@X.    ",
"            .oX.  .oX.   .+.O   .#X#.OOOO.@.    ",
"            .@+X..o@X.   .+.O  .#X#.O    O..    ",
"            .o@@XX@@X.   ...O .#$#$O     O..    ",
"             .o@@@o@@X. .X%X..#.#.O       O.    ",
"              .....@@@X..%.%.#X#.O         .    ",
"                 ...@@+X.X.X.X#.O               ",
"                   ..o@@X..%.#$O                ",
"                     ..+@X.X..O O....           ",
"            .............@X..XO..&&&&.          ",
"          ..&&&&&&&&&&&&...XO..&&&&**.O         ",
"      .. .&&&&&&&&&&&&&&.XO..&&&&**...o         ",
"     .XX.&&&&&&&*.......O..&&&&**...=o          ",
"    .XXXX.&&&&&&&&&&&&&&&&&&&**...=o            ",
"     .XXXX.&&&&&&&&&&&&&&&&**..==               ",
"      .XXXX.***************...=O                ",
"       .XXXX................=o                  ",
"        .XXXX.=.=====.=.=.=o                    ",
"         .XXXX.==                               ",
"          .X%*X.=                               ",
"           .**X.=                               ",
"            .X.==                               ",
"             .==                                ",
"                                                ",
"                                                ",
"                                                ",
"                                                ",
"                                                ",
"                                                ",
"                                                ",
"                                                ",
"                                                ",
"                                                "};
